<svg id="Layer_2" data-name="Layer 2" xmlns="http://www.w3.org/2000/svg" viewBox="0 0 128 128"><title>TENT</title><path d="M126.25,116.75h-1.5V100.625a1.75,1.75,0,0,0-3.5,0v4.417l-7.877-7.165V64.7h12.773a1.75,1.75,0,0,0,1.436-2.75l-9.635-13.838h8.2a1.749,1.749,0,0,0,1.417-2.775l-9.541-13.188h8.124a1.75,1.75,0,0,0,1.436-2.75L107.634.75a1.817,1.817,0,0,0-2.873,0L84.813,29.4a1.75,1.75,0,0,0,1.437,2.75h8.123L84.832,45.34a1.749,1.749,0,0,0,1.418,2.775h8.2L84.813,61.953A1.75,1.75,0,0,0,86.25,64.7H99.021v20.12L65.178,54.038c-.024-.021-.05-.035-.074-.055-.049-.039-.1-.076-.149-.11s-.092-.057-.14-.082a1.717,1.717,0,0,0-.163-.076c-.051-.021-.1-.038-.154-.054s-.11-.03-.166-.041-.109-.018-.165-.024-.111-.008-.167-.008-.112,0-.167.008-.11.014-.165.024-.111.025-.166.041-.1.033-.154.054a1.717,1.717,0,0,0-.163.076c-.048.025-.094.052-.14.082s-.1.071-.149.11c-.024.02-.05.034-.074.055L28.979,84.823V64.7H41.75a1.75,1.75,0,0,0,1.437-2.75L33.552,48.115h8.2a1.749,1.749,0,0,0,1.418-2.775L33.627,32.152H41.75a1.75,1.75,0,0,0,1.437-2.75L23.239.75a1.817,1.817,0,0,0-2.873,0L.418,29.4a1.75,1.75,0,0,0,1.436,2.75H9.978L.437,45.34a1.749,1.749,0,0,0,1.417,2.775h8.2L.418,61.953A1.75,1.75,0,0,0,1.854,64.7H14.627V97.877L6.75,105.042v-4.417a1.75,1.75,0,0,0-3.5,0V116.75H1.75A1.749,1.749,0,0,0,0,118.5v7.75A1.749,1.749,0,0,0,1.75,128h124.5a1.749,1.749,0,0,0,1.75-1.75V118.5A1.749,1.749,0,0,0,126.25,116.75ZM14.84,47.365a1.751,1.751,0,0,0-1.437-2.75H5.28l9.541-13.187A1.75,1.75,0,0,0,13.4,28.652h-8.2L21.8,4.813,38.4,28.652H30.2a1.751,1.751,0,0,0-1.418,2.776l9.541,13.187H30.2a1.75,1.75,0,0,0-1.436,2.75L38.4,61.2H5.205Zm106.41,62.409v6.976h-4.176l-3.7-4.474v-9.667ZM87.175,116.75l-21.661-37.3c-.02-.033-.051-.055-.072-.086a1.853,1.853,0,0,0-.89-.68c-.034-.012-.062-.035-.1-.044a1.445,1.445,0,0,0-.16-.016A1.632,1.632,0,0,0,64,78.6a1.738,1.738,0,0,0-.29.028c-.055.01-.11,0-.164.017-.036.009-.064.033-.1.045a1.724,1.724,0,0,0-.27.123,1.743,1.743,0,0,0-.231.142,1.639,1.639,0,0,0-.2.19,1.591,1.591,0,0,0-.186.224c-.022.031-.052.053-.072.086l-21.661,37.3H15.469l2.253-2.724,0,0L28.577,100.9h0L64,58.079,99.422,100.9h0l10.851,13.119,0,0,2.253,2.724Zm-42.3,0L62.25,86.831V116.75ZM65.75,86.831,83.127,116.75H65.75ZM18.127,108.045V99.426l7.352-6.687v6.418Zm84.394-8.888V92.739l7.352,6.687v8.619ZM99.235,47.365a1.75,1.75,0,0,0-1.436-2.75H89.676l9.541-13.187A1.751,1.751,0,0,0,97.8,28.652H89.6L106.2,4.813l16.6,23.839h-8.2a1.75,1.75,0,0,0-1.418,2.776l9.541,13.187H114.6a1.751,1.751,0,0,0-1.437,2.75L122.8,61.2H89.6ZM102.521,64.7h7.352v29.99l-7.352-6.687Zm-3.5,30.223L81.078,73.233,99.021,89.555Zm-52.1-21.693L28.979,94.926V89.555ZM18.127,64.7h7.352v23.3l-7.352,6.687ZM6.75,109.774l7.877-7.165v9.667l-3.7,4.474H6.75ZM124.5,124.5H3.5v-4.25h121Z"/></svg>